<?xml version="1.0" encoding="utf-8"?>
<!-- Generator: Adobe Illustrator 23.0.4, SVG Export Plug-In . SVG Version: 6.00 Build 0)  -->
<svg version="1.1" id="Layer_1" xmlns="http://www.w3.org/2000/svg" xmlns:xlink="http://www.w3.org/1999/xlink" x="0px" y="0px"
	 viewBox="0 0 151.9 152.6" style="enable-background:new 0 0 151.9 152.6;" xml:space="preserve">
<style type="text/css">
	.st0{fill:url(#SVGID_1_);}
	.st1{fill:url(#SVGID_2_);}
	.st2{fill:url(#SVGID_3_);}
	.st3{fill:url(#SVGID_4_);}
	.st4{fill:url(#SVGID_5_);}
	.st5{fill:none;stroke:url(#SVGID_6_);stroke-width:3;stroke-linecap:round;stroke-miterlimit:10;}
	.st6{fill:none;stroke:url(#SVGID_7_);stroke-width:3;stroke-linecap:round;stroke-miterlimit:10;}
	.st7{fill:none;stroke:url(#SVGID_8_);stroke-width:3;stroke-linecap:round;stroke-miterlimit:10;}
	.st8{fill:none;stroke:url(#SVGID_9_);stroke-width:3;stroke-linecap:round;stroke-miterlimit:10;}
</style>
<title>Hedge_final_GRADIENT</title>
<linearGradient id="SVGID_1_" gradientUnits="userSpaceOnUse" x1="20.1794" y1="54.8513" x2="20.1794" y2="26.5313" gradientTransform="matrix(1 0 0 -1 0 168.3626)">
	<stop  offset="0" style="stop-color:#50A947"/>
	<stop  offset="1" style="stop-color:#00551F"/>
</linearGradient>
<path class="st0" d="M9.6,113.5h2.9v12.3h15.5v-12.3h2.9v28.3h-2.9v-13.4H12.4v13.4H9.6V113.5z"/>
<linearGradient id="SVGID_2_" gradientUnits="userSpaceOnUse" x1="47.3244" y1="54.8513" x2="47.3244" y2="26.5313" gradientTransform="matrix(1 0 0 -1 0 168.3626)">
	<stop  offset="0" style="stop-color:#50A947"/>
	<stop  offset="1" style="stop-color:#00551F"/>
</linearGradient>
<path class="st1" d="M41.2,139.3h15.2v2.6h-18v-28.3h17.6v2.6H41.2v9.7h13.8v2.6H41.2V139.3z"/>
<linearGradient id="SVGID_3_" gradientUnits="userSpaceOnUse" x1="74.1046" y1="54.8513" x2="74.1046" y2="26.5313" gradientTransform="matrix(1 0 0 -1 0 168.3626)">
	<stop  offset="0" style="stop-color:#50A947"/>
	<stop  offset="1" style="stop-color:#00551F"/>
</linearGradient>
<path class="st2" d="M62,113.5h9.4c1.8,0,3.6,0.3,5.3,0.9c1.8,0.6,3.4,1.5,4.8,2.7c1.5,1.2,2.6,2.7,3.5,4.4c1.8,3.9,1.8,8.4,0,12.4
	c-0.8,1.7-2,3.2-3.5,4.4c-1.4,1.2-3,2.1-4.8,2.7c-1.7,0.6-3.5,0.9-5.3,0.9H62V113.5z M64.8,139.3h5.7c1.9,0,3.8-0.3,5.6-1
	c1.5-0.6,2.8-1.5,3.9-2.6c1-1.1,1.8-2.3,2.3-3.7c1-2.8,1-5.8,0-8.6c-0.5-1.4-1.3-2.6-2.3-3.7c-1.1-1.1-2.5-2-3.9-2.6
	c-1.8-0.7-3.7-1-5.6-1h-5.7V139.3z"/>
<linearGradient id="SVGID_4_" gradientUnits="userSpaceOnUse" x1="103.3795" y1="55.5662" x2="103.3795" y2="25.8005" gradientTransform="matrix(1 0 0 -1 0 168.3626)">
	<stop  offset="0" style="stop-color:#50A947"/>
	<stop  offset="1" style="stop-color:#00551F"/>
</linearGradient>
<path class="st3" d="M113.7,118.6c-1-1-2.2-1.9-3.5-2.4c-1.5-0.6-3.1-0.9-4.7-0.9c-1.7,0-3.4,0.3-4.9,1c-1.4,0.6-2.7,1.6-3.7,2.7
	c-1,1.1-1.8,2.5-2.3,3.9c-1.1,3-1.1,6.4,0,9.4c0.5,1.4,1.3,2.8,2.3,3.9c1,1.1,2.3,2,3.7,2.7c1.5,0.7,3.2,1,4.9,1
	c1.5,0,3-0.2,4.4-0.5c1.1-0.3,2.2-0.7,3.2-1.3v-8.6h-6.6V127h9.5v12.8c-1.6,0.9-3.2,1.6-5,2.1c-1.8,0.5-3.7,0.7-5.6,0.7
	c-2,0-4-0.4-5.9-1.1c-1.8-0.7-3.3-1.8-4.7-3.1c-1.3-1.3-2.4-2.9-3.1-4.7c-1.5-3.8-1.5-8.1,0-11.9c1.4-3.6,4.2-6.4,7.8-7.8
	c1.9-0.8,3.9-1.1,5.9-1.1c2-0.1,4,0.3,5.9,1c1.6,0.6,3.1,1.6,4.3,2.8L113.7,118.6z"/>
<linearGradient id="SVGID_5_" gradientUnits="userSpaceOnUse" x1="132.4444" y1="54.8513" x2="132.4444" y2="26.5313" gradientTransform="matrix(1 0 0 -1 0 168.3626)">
	<stop  offset="0" style="stop-color:#50A947"/>
	<stop  offset="1" style="stop-color:#00551F"/>
</linearGradient>
<path class="st4" d="M126.3,139.3h15.2v2.6h-18v-28.3H141v2.6h-14.7v9.7H140v2.6h-13.7V139.3z"/>
<linearGradient id="SVGID_6_" gradientUnits="userSpaceOnUse" x1="9.268" y1="121.8068" x2="119.6093" y2="121.8068" gradientTransform="matrix(1 0 0 -1 0 168.3626)">
	<stop  offset="0" style="stop-color:#50A947"/>
	<stop  offset="1" style="stop-color:#00551F"/>
</linearGradient>
<path class="st5" d="M104.8,34.3c4-2,8.4-3.5,12.8-4.2c0.3-0.1,0.5-0.4,0.5-0.7c0-0.2-0.2-0.4-0.3-0.5c-2-0.9-5.4-2.3-9.7-3.8
	c-1.2-0.4-2.3-1-3.3-1.8c-2.7-2.1-8-6.2-9.9-7.9L94,20.9c0,0-14.4-6.5-16.6-7.5l0.2,5.4l0,0c-0.2-0.1-15.1-4.2-17.4-4.9l0.4,5.5
	l-22.7-2.3l4.8,7.3c0,0-13.7,1-17.6,0.7l6.7,5.8c0,0-14,6-16.3,7.2c-0.2,0.1,8.3,5.5,8.3,5.5l-11,10.9L23,55l-8.1,14.4L32,70.7l0,0
	l4.1,9.6l19-4.9C69,72,79.4,59.5,84.7,51.6c3-4.6,6.8-8.7,11.1-12"/>
<linearGradient id="SVGID_7_" gradientUnits="userSpaceOnUse" x1="85.6879" y1="135.3183" x2="106.2644" y2="135.3183" gradientTransform="matrix(1 0 0 -1 0 168.3626)">
	<stop  offset="0" style="stop-color:#50A947"/>
	<stop  offset="1" style="stop-color:#00551F"/>
</linearGradient>
<polyline class="st6" points="104.8,34.3 89.2,28.1 95.9,39.6 "/>
<linearGradient id="SVGID_8_" gradientUnits="userSpaceOnUse" x1="47.3044" y1="108.9863" x2="139.7244" y2="108.9863" gradientTransform="matrix(1 0 0 -1 0 168.3626)">
	<stop  offset="0" style="stop-color:#50A947"/>
	<stop  offset="1" style="stop-color:#00551F"/>
</linearGradient>
<path class="st7" d="M120.3,33.2l7.2,8c0.2,0.2,0.4,0.3,0.6,0.3l9.2,1c0.5,0.1,0.9,0.5,0.9,1v3.4c0,0.3-0.1,0.5-0.3,0.7l-23.8,26.4
	c-0.3,0.3-0.3,0.7-0.2,1.1l3.2,7.6c0.2,0.5,0,1.1-0.5,1.3c-0.1,0.1-0.3,0.1-0.4,0.1h-6.6c-0.4,0-0.7-0.2-0.9-0.6l-3.8-7.9
	c-0.2-0.4-0.6-0.6-1-0.6l-43,3.8c-0.6,0-1,0.5-0.9,1.1c0,0.1,0,0.2,0.1,0.3l1.7,4c0.2,0.5,0,1.1-0.5,1.3c-0.1,0.1-0.3,0.1-0.4,0.1
	h-9.7c-0.4,0-0.8-0.3-0.9-0.6l-1.5-4"/>
<linearGradient id="SVGID_9_" gradientUnits="userSpaceOnUse" x1="119.2644" y1="90.6913" x2="127.7091" y2="90.6913" gradientTransform="matrix(1 0 0 -1 0 168.3626)">
	<stop  offset="0" style="stop-color:#50A947"/>
	<stop  offset="1" style="stop-color:#00551F"/>
</linearGradient>
<path class="st8" d="M120.8,82.9h4.7c0.4,0,0.8-0.3,0.8-0.8c0-0.1,0-0.3-0.1-0.4l-5.2-9.3"/>
</svg>
